<svg id="visual" viewBox="0 0 1920 500" width="1920" height="500" xmlns="http://www.w3.org/2000/svg" xmlns:xlink="http://www.w3.org/1999/xlink" version="1.1"><rect x="0" y="0" width="1920" height="500" fill="#091325"></rect><path d="M0 182L45.7 195.3C91.3 208.7 182.7 235.3 274.2 248.2C365.7 261 457.3 260 548.8 243C640.3 226 731.7 193 823 194.8C914.3 196.7 1005.7 233.3 1097 241.3C1188.3 249.3 1279.7 228.7 1371.2 222.8C1462.7 217 1554.3 226 1645.8 230.2C1737.3 234.3 1828.7 233.7 1874.3 233.3L1920 233L1920 501L1874.3 501C1828.7 501 1737.3 501 1645.8 501C1554.3 501 1462.7 501 1371.2 501C1279.7 501 1188.3 501 1097 501C1005.7 501 914.3 501 823 501C731.7 501 640.3 501 548.8 501C457.3 501 365.7 501 274.2 501C182.7 501 91.3 501 45.7 501L0 501Z" fill="#0b3af2"></path><path d="M0 272L45.7 270.8C91.3 269.7 182.7 267.3 274.2 274.5C365.7 281.7 457.3 298.3 548.8 302C640.3 305.7 731.7 296.3 823 278C914.3 259.7 1005.7 232.3 1097 233.3C1188.3 234.3 1279.7 263.7 1371.2 265.7C1462.7 267.7 1554.3 242.3 1645.8 239.8C1737.3 237.3 1828.7 257.7 1874.3 267.8L1920 278L1920 501L1874.3 501C1828.7 501 1737.3 501 1645.8 501C1554.3 501 1462.7 501 1371.2 501C1279.7 501 1188.3 501 1097 501C1005.7 501 914.3 501 823 501C731.7 501 640.3 501 548.8 501C457.3 501 365.7 501 274.2 501C182.7 501 91.3 501 45.7 501L0 501Z" fill="#0037be"></path><path d="M0 286L45.7 283.5C91.3 281 182.7 276 274.2 286.5C365.7 297 457.3 323 548.8 338.7C640.3 354.3 731.7 359.7 823 356.5C914.3 353.3 1005.7 341.7 1097 339C1188.3 336.3 1279.7 342.7 1371.2 334C1462.7 325.3 1554.3 301.7 1645.8 288.7C1737.3 275.7 1828.7 273.3 1874.3 272.2L1920 271L1920 501L1874.3 501C1828.7 501 1737.3 501 1645.8 501C1554.3 501 1462.7 501 1371.2 501C1279.7 501 1188.3 501 1097 501C1005.7 501 914.3 501 823 501C731.7 501 640.3 501 548.8 501C457.3 501 365.7 501 274.2 501C182.7 501 91.3 501 45.7 501L0 501Z" fill="#002f8b"></path><path d="M0 356L45.7 354.5C91.3 353 182.7 350 274.2 354.2C365.7 358.3 457.3 369.7 548.8 377.2C640.3 384.7 731.7 388.3 823 378.3C914.3 368.3 1005.7 344.7 1097 346.3C1188.3 348 1279.7 375 1371.2 385.2C1462.7 395.3 1554.3 388.7 1645.8 380.5C1737.3 372.3 1828.7 362.7 1874.3 357.8L1920 353L1920 501L1874.3 501C1828.7 501 1737.3 501 1645.8 501C1554.3 501 1462.7 501 1371.2 501C1279.7 501 1188.3 501 1097 501C1005.7 501 914.3 501 823 501C731.7 501 640.3 501 548.8 501C457.3 501 365.7 501 274.2 501C182.7 501 91.3 501 45.7 501L0 501Z" fill="#002357"></path><path d="M0 432L45.7 434.5C91.3 437 182.7 442 274.2 442.3C365.7 442.7 457.3 438.3 548.8 432.5C640.3 426.7 731.7 419.3 823 421.3C914.3 423.3 1005.7 434.7 1097 441.8C1188.3 449 1279.7 452 1371.2 451C1462.7 450 1554.3 445 1645.8 435.5C1737.3 426 1828.7 412 1874.3 405L1920 398L1920 501L1874.3 501C1828.7 501 1737.3 501 1645.8 501C1554.3 501 1462.7 501 1371.2 501C1279.7 501 1188.3 501 1097 501C1005.7 501 914.3 501 823 501C731.7 501 640.3 501 548.8 501C457.3 501 365.7 501 274.2 501C182.7 501 91.3 501 45.7 501L0 501Z" fill="#091325"></path></svg>